<?xml version="1.0" encoding="UTF-8"?>
<svg version="1.1" viewBox="0 0 2048 2048" width="1280" height="1280" xmlns="http://www.w3.org/2000/svg">
<path transform="translate(1018,96)" d="m0 0h11l12 4 72 40 95 53 23 13 29 16 23 13 25 14 10 8 6 8 3 9 1 101v224l14 10 32 24 13 10 19 14 13 10 32 24 21 16 19 14 21 16 16 12 5 1 8-5 50-28 27-15 14-8 10-4h14l12 5 22 12 41 23 18 10 23 13 45 25 52 29 23 13 27 15 17 10 10 9 4 8 3 10v320l-3 9-7 9-9 6-16 9-27 15-23 13-43 24-77 43-77 43-11 5-11 2-10-2-14-7-21-12-27-15-52-29-52-29-50-28-17-10-4-2-4 1-27 21-13 10-36 28-17 13-15 12-26 20-36 28-8 5 5 4 23 13 25 14 23 13 17 10 8 7 5 9 2 9v319l-2 8-5 9-8 7-25 14-52 29-36 20-23 13-25 14-104 58-12 6-3 1h-16l-10-4-22-12-23-13-79-44-23-13-54-30-50-28-19-11-10-9-5-11-1-10v-309l2-11 5-10 7-7 17-10 25-14 68-38 1-2-4-2-19-13-16-12-19-13-19-14-19-13-16-12-16-11-18-13-34-24-8-6-5 1-29 16-23 13-83 46-25 14-54 30-21 12-10 4-5 1h-8l-12-4-27-15-23-13-50-28-23-13-27-15-23-13-52-29-24-14-20-11-9-7-4-5-4-10-1-15v-300l1-11 5-12 8-8 15-9 45-25 23-13 81-45 16-9 27-15 23-13 27-15 16-9 10-4h13l13 5 23 13 50 28 24 14 5-1 18-14 19-14 21-16 48-36 21-16 19-14 21-16 16-12 15-11h2v-323l4-12 6-8 8-6 21-12 25-14 29-16 23-13 52-29 45-25 23-13 27-15 23-13zm4 69-16 9-70 39-70 39-27 15-12 7-8 3 2 4 27 15 23 13 79 44 23 13 29 16 21 12 6-2 23-13 41-23v-2l-27-15-23-13-6 1-16 2-16-3-12-6-11-11-7-14-2-9v-13l3-12 5-10 9-10 9-6 11-4 7-1h12l13 3 12 7 8 8 6 10 4 11 5 4 11 6 17 9 21 12 27 15 5 3 5-1 27-15 21-12 16-9v-4l-19-10-23-13-27-15-50-28-23-13-29-16-18-10-12-7zm-237 169-1 213 2 2 6-4 18-14 19-14 17-13 20-15 10-6 7-2h10l10 3 8 6 6 9 2 6v14l-4 10-6 7-16 12-19 14-13 10-16 12-14 10-3 2 1 3 17 9 23 13 27 15 23 13 56 31 15 9h2v-239l-5-4-24-13-21-12-22-12-23-13-27-15-79-44-4-3zm477 0-54 30-23 13-47 26-75 42-7 4v240l6-2 17-10 128-71 13-7-1-3-16-12-21-16-19-14-17-13-10-8-5-8-2-6v-14l4-10 7-8 10-5 4-1h11l11 4 14 10 13 10 56 42 4 2v-215zm-492 306-12 10-14 10-13 10-19 14-17 13-21 16-19 14-21 16-19 14-13 10-19 14-3 2v3l19 10 23 13 27 15 25 14 13 8 7 6 5 9 2 6 1 13v303l2 4 11 7 18 13 20 14 18 13 28 20 17 12 18 13 20 14 18 13 17 12 18 13 5-1 24-13 21-12 27-15 23-13 11-4h11l12 4 72 40 43 24 4-1 16-13 16-12 15-12 17-13 15-12 16-12 15-12 26-20 15-12 13-10 20-15 3-2v-326l3-10 4-6 7-7 17-10 27-15 29-16 23-13 11-6-2-4-16-12-17-13-12-9-21-16-19-14-21-16-19-14-17-13-16-12-21-16-9-7-4 1-26 14-23 13-54 30-23 13-29 16-23 13-29 16-23 13-11 5-6 1h-8l-10-3-23-13-22-12-23-13-72-40-75-42-21-12zm-372 118-26 14-23 13-13 7v3l18 11 20 13 9 6 14-2h10l13 3 10 5 10 9 6 9 5 13 1 13-2 12-8 16-9 9-14 7-11 3h-12l-14-3-11-6-8-7-7-11-4-10-2-6-20-13-57-36-6 1-24 13-21 12-27 15v3l19 10 23 13 27 15 23 13 29 16 45 25 25 14 10 6 5 1 24-14 26-14 21-12 29-16 21-12 54-30 23-13 4-2-2-4-52-29-23-13-27-15-23-13-54-30-21-12zm1249 0-25 14-29 16-23 13-27 15-23 13-24 13-23 13-25 14-4 2v3l21 11 21 12 126 70 23 13 12 7 4-1 24-13 21-12 17-9v-3l-20-12-21-13-6-4-9 1-5 1h-7l-12-3-10-5-10-9-6-9-4-9-2-9v-10l2-11 7-14 6-7 10-7 9-4 15-2 13 2 9 4 9 6 7 8 7 14 2 7 5 4 21 13 28 17 21 13 7 4 50-28 22-12 2-1-1-3-23-13-52-29-25-14-23-13-72-40-7-4zm-1487 169v240l23 13 27 15 19 11 3-1v-61l-10-13-5-10-3-11v-8l3-13 5-10 4-5v-2l4-2 6-5 10-5 7-2h21l12 4 10 7 7 7 8 16 2 9v9l-4 14-6 10-7 8-1 18v81l4 4 26 14 24 14 16 9 2 1v-241l-27-15-52-29-52-29-23-13-29-16-23-13zm476 1-24 13-23 13-25 14-52 29-79 44-2 2v239l6-2 23-13 18-10 23-13 25-14 27-15 23-13 18-10 3-2-1-3-18-13-17-12-18-13-19-13-11-9-6-7-4-10v-12l5-12 4-5 10-6 8-2h9l11 4 12 8 18 13 17 12 18 13 13 9 10 7 1-3v-208zm773 0v216l4-2 16-12 15-12 16-12 16-13 13-10 9-6 9-3h12l11 4 7 6 6 11 1 4v12l-4 10-9 10-28 22-13 10-15 12-16 12-5 5 17 10 24 13 23 13 29 16 23 13 27 15 14 8 3 2h3v-238l-3-3-120-67-52-29-23-13-7-4zm476 0-77 43-43 24-77 43-8 5v238l3 1 23-13 43-24 23-13 29-16 21-12 20-11 18-10 22-12 6-4v-80l-6 2-27 14-19 10-4 3-4 11-6 9-6 7-10 6-11 4-4 1h-15l-13-4-10-6-9-9-8-16-1-4v-20l4-12 7-11 9-8 12-6 7-2h20l7 2 6-1 29-15 19-10 29-15 4-4v-85zm-863 413-16 9-54 30-21 12-24 13-21 12-29 16-16 9-14 8-8 4 4 4 25 14 23 13 27 15 23 13 22 12 23 13 29 16 23 13 5 3 6-2 25-14 21-12 12-7-1-3-12-7-20-13-14-9-9 1-10 1-13-2-10-4-9-7-8-9-6-12-2-9v-13l3-12 5-10 9-10 9-6 11-4 7-1h11l14 3 12 7 9 9 7 14 3 10 9 6 19 12 23 15 16 10 10 7 4-1 27-15 46-26 1-3-27-15-52-29-25-14-23-13-29-16-25-14-21-12zm-237 169-1 158v77l2 6 19 10 46 26 5 2v-64l-8-9-7-14-2-7v-17l4-13 7-11 8-8 16-8 5-1h17l12 3 10 6 7 6 7 10 5 14 1 7v8l-3 13-7 13-5 5v2h-2l-1 5v96l8 5 29 16 23 13 10 6h2v-239l-9-6-45-25-79-44-41-23-27-15-4-3zm477 0-27 15-23 13-29 16-25 14-29 16-23 13-45 25-5 3v240l5-2 45-25 23-13 27-15 23-13 63-35 20-11 1-1v-83l-5 2-26 14-19 11-5 3-5 13-7 11-11 9-12 5-9 2h-12l-11-3-12-6-10-10-6-10-4-15v-10l4-16 7-11 2-4 4-2 10-7 11-4 7-1h9l13 3 4-1 23-13 22-12 23-13 14-8 1-1v-83z" fill="#675CBE"/>
<path transform="translate(1018,96)" d="m0 0h11l12 4 72 40 95 53 23 13 29 16 23 13 25 14 10 8 6 8 3 9 1 101v224l14 10 32 24 13 10 19 14 13 10 32 24 21 16 19 14 21 16 16 12 5 1 8-5 50-28 27-15 14-8 10-4h14l12 5 22 12 41 23 18 10 23 13 45 25 52 29 23 13 27 15 17 10 10 9 4 8 3 10v320l-3 9-7 9-9 6-16 9-27 15-23 13-43 24-77 43-77 43-11 5-11 2-10-2-14-7-21-12-27-15-52-29-52-29-50-28-17-10-4-2-4 1-27 21-13 10-36 28-17 13-9 7-8-1v2l-10 5h-2v2l-3 1-3 3-4 3-2-1v2l-6 5-3 1-1-5 2-5h2l1-2 2 1 2-5h2l1-5 6-5 2-2h3l5-6h-3v-2l-4-1-1-3-5-1v-2l-7-1-6-3-1-2-1-10 2-4h2v-3h2v-2l5-5 3-9 5-5 15-12 13-10 36-28 9-6v-326l3-10 4-6 8-8 17-10 27-15 29-16 23-13 10-5-1-3-16-12-17-13-12-9-21-16-19-14-21-16-19-14-17-13-16-12-21-16-9-7-4 1-26 14-23 13-54 30-23 13-29 16-23 13-29 16-23 13-11 5-6 1h-8l-10-3-23-13-22-12-23-13-72-40-75-42-21-12-4 1-15 12-11 8-32 24-3 2-4-1-3-6 3-5 1-4h2l-1-2-6-1 4-8 6-10-2-6 1-6-4-5-4-4 2-8 5-5h2l2-4 3-5 2-4h2v-3h3v-6l-1-2v-317l4-12 6-8 8-6 21-12 25-14 29-16 23-13 52-29 45-25 23-13 27-15 23-13zm4 69-16 9-70 39-70 39-27 15-12 7-8 3 2 4 27 15 23 13 79 44 23 13 29 16 21 12 6-2 23-13 41-23v-2l-27-15-23-13-6 1-16 2-16-3-12-6-11-11-7-14-2-9v-13l3-12 5-10 9-10 9-6 11-4 7-1h12l13 3 12 7 8 8 6 10 4 11 5 4 11 6 17 9 21 12 27 15 5 3 5-1 27-15 21-12 16-9v-4l-19-10-23-13-27-15-50-28-23-13-29-16-18-10-12-7zm-237 169-1 213 2 2 6-4 18-14 19-14 17-13 20-15 10-6 7-2h10l10 3 8 6 6 9 2 6v14l-4 10-6 7-16 12-19 14-13 10-16 12-14 10-3 2 1 3 17 9 23 13 27 15 23 13 56 31 15 9h2v-239l-5-4-24-13-21-12-22-12-23-13-27-15-79-44-4-3zm477 0-54 30-23 13-47 26-75 42-7 4v240l6-2 17-10 128-71 13-7-1-3-16-12-21-16-19-14-17-13-10-8-5-8-2-6v-14l4-10 7-8 10-5 4-1h11l11 4 14 10 13 10 56 42 4 2v-215zm385 424-25 14-29 16-23 13-27 15-23 13-24 13-23 13-25 14-4 2v3l21 11 21 12 126 70 23 13 12 7 4-1 24-13 21-12 17-9v-3l-20-12-21-13-6-4-9 1-5 1h-7l-12-3-10-5-10-9-6-9-4-9-2-9v-10l2-11 7-14 6-7 10-7 9-4 15-2 13 2 9 4 9 6 7 8 7 14 2 7 5 4 21 13 28 17 21 13 7 4 50-28 22-12 2-1-1-3-23-13-52-29-25-14-23-13-72-40-7-4zm-238 170v216l4-2 16-12 15-12 16-12 16-13 13-10 9-6 9-3h12l11 4 7 6 6 11 1 4v12l-4 10-9 10-28 22-13 10-15 12-16 12-5 5 17 10 24 13 23 13 29 16 23 13 27 15 14 8 3 2h3v-238l-3-3-120-67-52-29-23-13-7-4zm476 0-77 43-43 24-77 43-8 5v238l3 1 23-13 43-24 23-13 29-16 21-12 20-11 18-10 22-12 6-4v-80l-6 2-27 14-19 10-4 3-4 11-6 9-6 7-10 6-11 4-4 1h-15l-13-4-10-6-9-9-8-16-1-4v-20l4-12 7-11 9-8 12-6 7-2h20l7 2 6-1 29-15 19-10 29-15 4-4v-85z" fill="#B4239B"/>
<path transform="translate(721,593)" d="m0 0 2 2-1 6h-3v3h-2l-2 7-6 7-4 4h-2l-1 9 8 8-1 6 2 7-4 5-6 11 6 2-2 6-3 5 1 3 2 2 2 3-12 9-21 16-19 14-21 16-19 14-13 10-19 14-3 1v3l6 2 29 16 27 15 23 13 21 12 9 8 5 9 2 6 1 13v303l1 3 11 7 18 13 3 3-2 4-3 2h-4l2 4v4l4 3v2h-7l1 4-3 7 1 9-6 1 2 3-1 3-8-5-10-4 1 1-2 3h-3v4l2 1v4l6 2 8 5 1 4 2 1v2l-5-2-12-9-34-24-8-6-5 1-29 16-23 13-83 46-25 14-54 30-21 12-10 4-5 1h-8l-12-4-27-15-23-13-50-28-23-13-27-15-23-13-52-29-24-14-20-11-9-7-4-5-4-10-1-15v-300l1-11 5-12 8-8 15-9 45-25 23-13 81-45 16-9 27-15 23-13 27-15 16-9 10-4h13l13 5 23 13 50 28 24 14 5-1 18-14 19-14 21-16 48-36 21-16 19-14 21-16 16-12 15-11h2zm-323 165-26 14-23 13-13 7v3l18 11 20 13 9 6 14-2h10l13 3 10 5 10 9 6 9 5 13 1 13-2 12-8 16-9 9-14 7-11 3h-12l-14-3-11-6-8-7-7-11-4-10-2-6-20-13-57-36-6 1-24 13-21 12-27 15v3l19 10 23 13 27 15 23 13 29 16 45 25 25 14 10 6 5 1 24-14 26-14 21-12 29-16 21-12 54-30 23-13 4-2-2-4-52-29-23-13-27-15-23-13-54-30-21-12zm-238 169v240l23 13 27 15 19 11 3-1v-61l-10-13-5-10-3-11v-8l3-13 5-10 4-5v-2l4-2 6-5 10-5 7-2h21l12 4 10 7 7 7 8 16 2 9v9l-4 14-6 10-7 8-1 18v81l4 4 26 14 24 14 16 9 2 1v-241l-27-15-52-29-52-29-23-13-29-16-23-13zm476 1-24 13-23 13-25 14-52 29-79 44-2 2v239l6-2 23-13 18-10 23-13 25-14 27-15 23-13 18-10 3-2-1-3-18-13-17-12-18-13-19-13-11-9-6-7-4-10v-12l5-12 4-5 10-6 8-2h9l11 4 12 8 18 13 17 12 18 13 13 9 10 7 1-3v-208z" fill="#07A6EC"/>
<path transform="translate(1018,96)" d="m0 0h11l12 4 72 40 95 53 23 13 29 16 2 2-2 5 4 1 3 6 5 3 2 4v3h-2l-2 4-3 2v7l2 9-1 7 1 12 1 7-2 7 1 10-3 10 3 7 2 9v8l-1 3-7 2-1-15-54 30-23 13-47 26-75 42-6 3-1 240 27-15 23-13 101-56 11-6h2l-5-5-12-9-21-16-19-14-17-13-10-8-6-9-2-6v-14l4-10 7-8 8-5 7-2h11l11 4 14 10 13 10 56 42 3 2 1-7h3l2 1 3 5 2 3 1 18 3 7 1 8-6 9-4 5-3 5-2 17 4 5 5 5-2 5-1 2 5 1 2 3-9 6-19 10-23 13-54 30-23 13-29 16-23 13-29 16-23 13-11 5-6 1h-8l-10-3-23-13-22-12-23-13-72-40-75-42-21-12-4 1-15 12-11 8-32 24-3 2-4-1-3-6 3-5 1-4h2l-1-2-6-1 4-8 6-10-2-6 1-6-4-5-4-4 2-8 5-5h2l2-4 3-5 2-4h2v-3h3v-6l-1-2v-317l4-12 6-8 8-6 21-12 25-14 29-16 23-13 52-29 45-25 23-13 27-15 23-13zm4 69-16 9-70 39-70 39-27 15-12 7-8 3 2 4 27 15 23 13 79 44 23 13 29 16 21 12 6-2 23-13 41-23v-2l-27-15-23-13-6 1-16 2-16-3-12-6-11-11-7-14-2-9v-13l3-12 5-10 9-10 9-6 11-4 7-1h12l13 3 12 7 8 8 6 10 4 11 5 4 11 6 17 9 21 12 27 15 5 3 5-1 27-15 21-12 16-9v-4l-19-10-23-13-27-15-50-28-23-13-29-16-18-10-12-7zm-237 169-1 213 2 2 6-4 18-14 19-14 17-13 20-15 10-6 7-2h10l10 3 8 6 6 9 2 6v14l-4 10-6 7-16 12-19 14-13 10-16 12-14 10-3 2 1 3 17 9 23 13 27 15 23 13 56 31 15 9h2v-239l-5-4-24-13-21-12-22-12-23-13-27-15-79-44-4-3z" fill="#675CBE"/>
<path transform="translate(721,593)" d="m0 0 2 2-1 6h-3v3h-2l-2 7-6 7-4 4h-2l-1 9 8 8-1 6 2 7-4 5-6 11 6 2-2 6-3 5 1 3 2 2 2 3-12 9-21 16-19 14-21 16-19 14-13 10-19 14-3 1v3l6 2 29 16 27 15 23 13 21 12 9 8 5 9 2 6 1 13v303l1 3 11 7 18 13 3 3-2 4-3 2h-4l2 4v4l4 3v2h-7l1 4-3 7 1 9-6 1 2 3-1 3-8-5-10-4 1 1-2 3h-3v4l2 1v4l6 2 8 5 1 4 2 1v2l-5-2-12-9-34-24-8-6-5 1-29 16-23 13-29 16-4 1h-4l-2 2-3-2-1 3-10 3-8 3-5 3-13 5h-11l-10 4-8 1v-2l-1-2h2l-1-2-4-1 5-4-1-3 2-6 4-5 2-1v-4l-1 2-2-1 3-8 11-13 5-5h2l2-4 7-5h2l2-4 4-3h2v-2l7-4h2v-2l5-2v-2h5v-6l17-10 22-12v-2l-18-13-17-12-18-13-19-13-11-9-7-8-4-10v-12l5-12 5-6 10-6 8-2h9l11 4 12 8 18 13 17 12 18 13 13 9 10 7v-206l1-4-16 8-27 15-16 9h-8l-4 3-13 4-11 6h-2l-1 3-7 5-11 1-9 1-2 1-1 3-3 1-6-1h-11l1-3v-3l3-4v-4l1-4h2l2-5 2-2v-7l2-8 5-5 7-9h2l2-4 9-7 5-4h2v-2l6-4 2-6 23-13 25-14 10-5-1-3-52-29-2-2-2-5-6-4-8-1-1-6-3-3-11-9-7-8-5-5v-2l-2-3 1-3 2-1v-2l3-1v-5l3-3 1-6 2-8 9-6v-7h-4l2-4 18-14 19-14 21-16 48-36 21-16 19-14 21-16 16-12 15-11h2z" fill="#4777CE"/>
<path transform="translate(224,902)" d="m0 0 9 2 5 2v2l9 2 4 3 2 1v2l8 1 2-1v-4l6 2 29 16 27 15 25 14 29 16 17 10 5 1 24-14 26-14 21-12 29-16 42-24 1 2-2 5-4 3h-2v2l-9 7-8 6-1 2h-2l-2 4-6 7h-2l-2 6-1 8-1 5-4 6h-2l-1 5-1 2 2 1-4 6v3h13l6 1 1-4 7-1 13-2 4-2 5-3 4-4 6-3 8-3 11-4 2-2h7v2l-26 14-23 13-29 16-25 14-27 15-17 10-1 239 22-12 23-13 27-15 23-13 27-15 4-2 1 4-1 2h-5v2l-5 2v2l-7 4h-2v2l-7 5-3 3-8 6-8 8-10 12-3 8 1-1 2-1v5l-3 1-2 4-2 2-1 6 1 3-4 3 3 1v2l-1 1 3 1-1 1 8-2 8-3h12l12-5 5-3 8-3 5-2h5l1-4 3 2 2-2 2 1 1-2v4l-24 13-23 13-81 45-21 12-10 4-5 1h-8l-12-4-27-15-23-13-50-28-19-11-1-6-6-2-4-4-8-4-12-9-11-8-8-6-2-4 6-6 3-1-5-7 1-4h-2l-2-3v-4l5-2h3l1-4 8-5 1-1 1-7 1-3-2-3v-61l-10-13-5-10-3-11v-8l3-13 5-10 5-7 10-8 10-5 7-2h21l12 4 10 7 8 8 8 16 2 9v9l-4 14-6 10-7 8-1 18v81l3 3 26 14 24 14 16 9 1 1 1-240-5-2-24-13-21-12-29-16-14-8 1-4h-2l-5-5-9-6-5-3v-2l-4-2-10-7-6-5-8-6-1-5-8-7v-2l-10-8 2-2-3-7v-3l10-4h15l-5-4-2-3z" fill="#159AE5"/>
<path transform="translate(1263,1401)" d="m0 0 4 1 24 13 22 13 8 7 5 9 2 9v319l-2 8-5 9-8 7-9 5-7 2-5 1-6 2-15 6-1 2h-2v2l-6 2-10 4-4-2-2 1-2-1 2-5 4-4h3l1-3 10-4 4-7-3-1-3-10-4-5 2-5 3-8-2-4 1-6 1-2v-89l-29 16-21 12-4 2-5 13-7 11-9 8-12 6-12 3h-12l-11-3-12-6-11-11-6-10-4-15v-10l4-16 7-11 5-5 7-6 10-5 6-2 7-1h9l13 3 4-1 23-13 22-12 23-13 14-8 1-66 6-2 2-4v-10l-3-8-2-3 1-6 6-12-1-4-3-9-1-9-4-5 1-9 1-8-2-5v-4l9-4 2-3-3-7-5-5-4-7z" fill="#B3239B"/>
<path transform="translate(393,689)" d="m0 0h13l13 5 23 13 50 28 24 14 4 2 5 1-1 7-8 6h-2l-1 12-3 5h-2l1 5-4 1 1 3-3 1 2 5v3l6 5 7 8 7 5v2l5 2 2 6 3 1 8 3 4 4-1 4-24-13-21-12-27-15-52-29-21-12-5 1-24 13-23 13-13 7 5 4 16 10 17 11 9 6 14-2h10l13 3 10 5 10 9 6 8 5 12 2 11-1 13-4 11-6 10-9 9-14 7-11 3h-12l-14-3-11-6-9-8-7-11-4-10-2-6-76-48-6 1-24 13-14 8-6-1-9 2h-3l-5 2-1-3 1-2h-2l-1-5 5-4 2-6 3-6-2-6v-4l-4-2h2l2-4-6 2v2l-4-1 1-3-10 5-10 1 1-4-3-1 3-1v-2l4-3 1-3h-4v-2l81-45 23-13 29-16 23-13 27-15 16-9z" fill="#159AE5"/>
<path transform="translate(543,906)" d="m0 0 1 2-2 5-4 3h-2v2l-9 7-8 6-1 2h-2l-2 4-6 7h-2l-2 6-1 8-1 5-4 6h-2l-1 5-1 2 2 1-4 6v3h13l6 1 1-4 7-1 13-2 4-2 5-3 4-4 6-3 8-3 11-4 2-2h7v2l-26 14-23 13-29 16-25 14-27 15-17 10-1 239 22-12 23-13 27-15 23-13 27-15 4-2 1 4-1 2h-5v2l-5 2v2l-7 4h-2v2l-7 5-3 3-8 6-8 8-10 12-3 8 1-1 2-1v5l-3 1-2 4-2 2-1 6 1 3-4 3 3 1v2l-1 1 3 1-1 1 8-2 8-3h12l12-5 5-3 8-3 5-2h5l1-4 3 2 2-2 2 1 1-2v4l-24 13-23 13-81 45-21 12-10 4-5 1h-8l-12-4-2-1-1-6-5-1-4-5-7-6-5-3-4-4-5-3-2-8-2-5 12-3 2-4 5-4 3-6 4-7 1-4v-7l-2-10 3-8v-21l-4-21-1-8 1-6-1-12 2-5v-16l1-6-1-5 1-18v-37l3-34 2-30 1-5-1-11-1-7-2-4 1-2v-5l2-1 3 1 1-4 4-7 1-6 14-5 4-2 1-2h3l1-4h3v-2l-4 1v-4l23-13 27-15 16-9 27-15 21-12z" fill="#288CDB"/>
<path transform="translate(721,593)" d="m0 0 2 2-1 6h-3v3h-2l-2 7-6 7-4 4h-2l-1 9 8 8-1 6 2 7-4 5-6 11 6 2-2 6-3 5 1 3 2 2 2 3-12 9-21 16-19 14-21 16-19 14-13 10-19 14-3 1v3l6 2 14 8 1 4 4 2v2l4 2 2 4-1 1 11 4 4 4 6 5 3 1v3l-15-3-4 4h-4l4 9 3 8-1 4-5 5 2 1v4l-4-2 2 6 2 1v2l-4-1 4 13v7l-3 6-2 11-4 7 2 1-2 4-6 4-6 9-2 1-1 5-1 3-10 4h-4l-1 10-5 2h-3v2h-2v2l4 1 6-5 1-2 2 1-1 2 10-1 3 2-10 5h-7l-4 3-13 4-11 6h-2l-1 3-7 5-11 1-9 1-2 1-1 3-3 1-6-1h-11l1-3v-3l3-4v-4l1-4h2l2-5 2-2v-7l2-8 5-5 7-9h2l2-4 9-7 5-4h2v-2l6-4 2-6 23-13 25-14 10-5-1-3-52-29-2-2-2-5-6-4-8-1-1-6-3-3-11-9-7-8-5-5v-2l-2-3 1-3 2-1v-2l3-1v-5l3-3 1-6 2-8 9-6v-7h-4l2-4 18-14 19-14 21-16 48-36 21-16 19-14 21-16 16-12 15-11h2z" fill="#3B80D6"/>
<path transform="translate(1268,1255)" d="m0 0m-2 1 2 1-3 9-3 4h-2v2h-2v3h-2l-1 7 1 7 1 2 7 3 5 1 1 2 4 1 2 3 3 1v2h3l-2 4h-2l-2 5-2-2-4 2-2 4h-2l-2 7-3 3-5 2-2 4 2 1v3l4-1 2-4h2v-2l3-1 4-2 2-3h3v-2l10-5h2v-2l5-1 2 3-13 10-54 42-8 5 5 4 39 22 1 5 5 7v2l3 1 3 8h-2l-2 4-8 2 3 11-2 9v6l4 5 2 13 2 5 1 4-7 14 1 5 2 3 2 9v8l-3 5-6 1-1-16-27 15-23 13-29 16-25 14-20 11-6-1v-5l5-3 2-1 1-3 4-3h2l2-4 11-8 4-1 1-3 3-2v-3l-20 1v2l-5-1v-3l2-1-6-7-5-13-4-7 1-3 3-2v-8l-4-7-5-6 3-1 2 1v-3l5 2 15 10 4 1 24-14 27-15 23-13 1-2-6-2-21-12-52-29-25-14-10-6-1-5v-2h2v2l4-1 4 2-1-1v-5h3v-2h2v4l3-1 1-6 5-1-1-8 1-2h3l-4-11-5-5 4-1 6 2v-5l2-2-3-3v-2l-2-1 5 1v2h3l1 1 1 2 4-2v-2l8 1 13-11 12-9 14-11 26-20 15-12 16-12z" fill="#8744B2"/>
<path transform="translate(1154,480)" d="m0 0h11l11 4 14 10 13 10 56 42 3 2 1-7h3l2 1 3 5 2 3 1 18 3 7 1 8-6 9-4 5-3 5-2 17 4 5 5 5-2 5-1 2 5 1 2 3-9 6-19 10-23 13-54 30-23 13-16 9h-2v-3l-2-2 11-11h3l2-4 12-9 2-5h2v-2l-12 3-5 2-6 4-2-2 1-3 3-2h-8l-6-2-2-4-7-2-2-4v-2l-1-5h2v-2l4-1v-6l3-7 24-13 23-13 27-15 22-12h2l-5-5-12-9-21-16-19-14-17-13-10-8-6-9-2-6v-14l4-10 7-8 8-5z" fill="#8744B2"/>
<path transform="translate(1125,152)" d="m0 0 11 1 72 40 23 13 29 16 2 2-2 5 4 1 3 6 5 3 2 4v3h-2l-2 4-3 2v7l2 9-1 7 1 12 1 7-2 7 1 10-3 10 3 7 2 9v8l-1 3-7 2-1-15-54 30-23 13-47 26h-3v-3h-3v-2l4-3 2-1 2-4 5-3 4-5 13-8v-2l3-2-3-2 2-1-10-1-6-3-3 1-2 3-5-2-2-6 4-8 1-3-2-6-4-2-2-5v-8l6-1v-4l-7-3-1-7h2l1 1v-4l-2-1v-3h7l19 11 5-1 27-15 21-12 16-9v-2l-19-10-23-13-27-15-25-14-19-11v-5h5v2l4-1 2 2 5 1-3-5h-3l-1-4 8 3h5v-2l4 1-4-9v-3h2l1-7-4-1-1-8v-3l-4-3 5-2-2-5-2-4v-2l-4-4z" fill="#8744B2"/>
<path transform="translate(530,1072)" d="m0 0h9l11 4 12 8 18 13 17 12 18 13 13 9 10 7 2-2 1 5-1 3-12 4-5 1v3l-7 1 1 8-3 4v7l-3 1-1 6v4l2 9-2 4h-2l1 3-7 19-5 8-1 6-9 10h-2l-2 5h-4l-4 4-3 4-5 1-4 2-4 14h3l1 4 3-1 1 2-1 2h-2l-2 2-3-2-1 3-10 3-8 3-5 3-13 5h-11l-10 4-8 1v-2l-1-2h2l-1-2-4-1 5-4-1-3 2-6 4-5 2-1v-4l-1 2-2-1 3-8 11-13 5-5h2l2-4 7-5h2l2-4 4-3h2v-2l7-4h2v-2l5-2v-2h5v-6l17-10 22-12v-2l-18-13-17-12-18-13-19-13-11-9-7-8-4-10v-12l5-12 5-6 10-6z" fill="#3B80D6"/>
<path transform="translate(1261,1594)" d="m0 0 2 1-1 7-2 2h-4l1 3 7 1 1 3-4 10 3 7 4 7 1 5-2 12-1 5 4 13v6l-2 3-3 1-2 3v-16l-29 16-21 12-4 2-5 13-7 11-9 8-12 6-12 3h-12l-11-3-12-6-11-11-6-10-4-15v-10l4-16 7-11 5-5 7-6 10-5 6-2 7-1h9l13 3 4-1 23-13 22-12 23-13z" fill="#8745B2"/>
<path transform="translate(393,689)" d="m0 0h13l13 5 23 13 50 28 24 14 4 2 5 1-1 7-8 6h-2l-1 12-3 5h-2l1 5-4 1 1 3-3 1 2 5v3l6 5 7 8 7 5v2l5 2 2 6 3 1 8 3 4 4-1 4-24-13-21-12-27-15-52-29-21-12-5 1-24 13-10 6h-2v-2l-5-1-6 2h-4v-2l-5 1v-2h5v-2h-4l2-5 3-3v-3l5-5 3-6 2-1v-8l1-4-1-2 3-7-8 1 2-3h-5l-1-5 6-5 3-2 2-1 5-10 22-12z" fill="#288CDB"/>
<path transform="translate(1263,1749)" d="m0 0h1v7l-2 4v7l2 1-4 10-1 3 5 7 2 8 2 1-2 5-2 3h-3l-1 2-6 2-1 2-5 1-4 8 5-1 1 2 8-2 3-1 2-2h5v-2h2l1-3 15-6 6-2 5-1 6-1-4 3-29 16-50 28-29 16-21 12-27 15-5 2-5-2v2l2 1-8-1 9-9 4-2 7-8 6-5 7-4 2-4h-9-3-5l-7-3h-8l-3-2v-5l-6 3-4-2v-2l3-3v-3l-4-1 3-4 1-3 3-3-2-1 4-6 24-13 21-12 72-40 20-11z" fill="#8745B2"/>
<path transform="translate(721,593)" d="m0 0 2 2-1 6h-3v3h-2l-2 7-6 7-4 4h-2l-1 9 8 8-1 6 2 7-4 5-6 11 6 2-2 6-3 5 1 3 2 2 2 3-12 9-21 16-19 14-21 16-19 14-13 10-7 5-8 2-7-2 1-6-1-4 2-3 1-4 4-4h3v-3h2l2-4 7-5 6-12 1-1 1-7 3-9h2v-4l-6-2v-7h2l1-5 6-5 10-10 3-4 5-5 7-6 2-5 4-6 19-14 21-16 16-12 15-11h2z" fill="#4677CE"/>
<path transform="translate(397,822)" d="m0 0h10l13 3 10 5 10 9 6 8 5 12 2 11-1 13-4 11-6 10-9 9-14 7-11 3h-12l-14-3-3-3v-2l-3-7-3-4-6-12-1-5-2-13-3-6 4-2 1-7 4-7 3-3 1-3-4-2-1-5 1-2h3l1-4 10-2h4v-3h-2l1-4z" fill="#288CDB"/>
<path transform="translate(234,1065)" d="m0 0 2 4-2 6-9 11-4 3v15h2l1 8 3 3 4 13 3 6 3 2 2 12-1 3v4 15l-2 15-3 6-1 14h-1v-61l-10-13-5-10-3-11v-8l3-13 5-10 5-7z" fill="#07A6EC"/>
<path transform="translate(512,1082)" d="m0 0 4 2-4 17v5l6 16 5 4 2 1v2l4 2 5 5 9 6 2 4 5 2 3 3v5l-5-2-15-11-14-10-10-9-5-8-2-6v-12l5-12z" fill="#278DDB"/>
<path transform="translate(530,1072)" d="m0 0h9l11 4 12 8 14 10-1 4h-2l-4-5-16-5-6-4-7-2-17-1-8 1v-4l10-5z" fill="#288CDB"/>
<path transform="translate(1255,635)" d="m0 0 2 1 1 1 4 3-1 3-13 5-4-1-1-2h2v-2l6-4h2v-3z" fill="#B2249B"/>
<path transform="translate(532,829)" d="m0 0 9 2 6 5-1 4-16-9z" fill="#268EDC"/>
<path transform="translate(639,1101)" d="m0 0 4 4v9l1 1v5l-5 2z" fill="#3C80D6"/>
<path transform="translate(706,1263)" d="m0 0 6 1 3 4v2l2 1v2l-5-2-6-5z" fill="#487BCF"/>
<path transform="translate(277,1302)" d="m0 0 6 2 6 4v3l-6-2-9-5z" fill="#08A5EC"/>
<path transform="translate(558,1158)" d="m0 0 6 1 1 3 3 1v3l-4-1-7-5z" fill="#248FDD"/>
<path transform="translate(301,1315)" d="m0 0 4 2 5 3v3l-5-2-6-3 2-1z" fill="#07A6EC"/>
</svg>
