<?xml version="1.0" encoding="UTF-8"?>
<svg version="1.1" viewBox="0 0 2048 1980" width="120" height="120" xmlns="http://www.w3.org/2000/svg">
<path transform="translate(1444)" d="m0 0h428l31 6 16 5 15 6 21 11 13 9 10 8 10 9 12 12 13 17 9 14 8 15 9 23 6 24 3 17v317h-46l-1-1-1-309-3-20-4-15-8-19-9-16-9-12-11-12-11-10-15-10-17-9-16-6-17-4-17-2-419-1-1-2v-44z" fill="#FEBF03"/>
<path transform="translate(176)" d="m0 0h399v46l-1 1-390 1-21 3-18 5-18 8-15 9-12 9-8 7-14 16-10 15-11 23-6 20-3 23-1 306-18 1h-29v-316l5-27 5-18 8-19 8-16 10-15 10-13 12-13 7-7 14-11 13-9 16-9 18-8 15-5 23-5z" fill="#FEBF03"/>
<path transform="translate(1975,1540)" d="m0 0h46l1 1v224l-1 39-3 21-6 22-7 18-11 21-8 12-10 13-12 13-14 13-18 13-22 12-15 6-15 5-28 6-6 1h-402l-1-10v-34l1-3 393-1 22-3 23-7 16-8 14-8 13-11 10-9 10-12 9-14 8-16 6-17 4-18 2-23z" fill="#FEBF03"/>
<path transform="translate(0,1540)" d="m0 0h47l1 255 3 22 4 15 9 21 8 14 10 13 12 13 12 10 14 9 16 8 16 6 17 4 17 2 383 1v47h-393l-34-7-18-6-20-9-17-10-17-13-15-14-12-13-13-18-10-18-9-21-6-21-5-27z" fill="#FEBF03"/>
</svg>
